<svg width="74" height="74" viewBox="0 0 74 74" fill="none" xmlns="http://www.w3.org/2000/svg">
<path fill-rule="evenodd" clip-rule="evenodd" d="M46.2482 21.5832H52.4149V36.9998C52.4149 44.6185 52.9991 46.2498 55.4982 46.2498C59.5199 46.2498 61.6649 44.3479 61.6649 36.9998C61.6649 20.691 53.4849 12.3332 36.9986 12.3332C26.3178 12.3345 16.8513 19.2098 13.5459 29.3663C10.2405 39.5228 13.8474 50.6527 22.4816 56.94C31.1157 63.2273 42.8155 63.2434 51.467 56.9798L55.0833 61.9748C44.269 69.8043 29.6443 69.7842 18.8515 61.925C8.05878 54.0659 3.55026 40.1535 7.68197 27.4579C11.8137 14.7623 23.6468 6.16818 36.9982 6.1665C56.9207 6.1665 67.8315 17.3146 67.8315 36.9998C67.8315 47.9299 62.7715 52.4165 55.4982 52.4165C51.3546 52.4165 48.9832 51.0805 47.6814 48.1148C44.9104 50.7788 41.1455 52.4165 36.9981 52.4165C28.4837 52.4165 21.5815 45.5142 21.5815 36.9998C21.5815 28.4854 28.4837 21.5832 36.9981 21.5832C40.4688 21.5832 43.6716 22.73 46.2482 24.6654V21.5832ZM46.2481 36.9998C46.2481 42.1085 42.1068 46.2498 36.9981 46.2498C31.8895 46.2498 27.7481 42.1085 27.7481 36.9998C27.7481 31.8912 31.8895 27.7498 36.9981 27.7498C42.1068 27.7498 46.2481 31.8912 46.2481 36.9998Z" fill="black"/>
</svg>
