<svg width="74" height="74" viewBox="0 0 74 74" fill="none" xmlns="http://www.w3.org/2000/svg">
<path fill-rule="evenodd" clip-rule="evenodd" d="M36.9999 70.9168C18.2683 70.9168 3.08325 55.7318 3.08325 37.0002C3.08325 18.2685 18.2683 3.0835 36.9999 3.0835C55.7316 3.0835 70.9166 18.2685 70.9166 37.0002C70.9166 55.7318 55.7316 70.9168 36.9999 70.9168ZM64.3422 41.7663C58.3808 40.3812 52.8069 40.025 47.6029 40.7054C50.196 47.1041 52.0835 53.3644 53.2632 59.4875C59.0003 55.3311 63.0844 49.0329 64.3422 41.7663ZM47.5691 62.6665C46.4621 56.0055 44.4345 49.1282 41.4829 42.036C33.1967 44.599 25.9445 50.1253 19.6415 58.652C24.3946 62.4675 30.4307 64.7502 36.9999 64.7502C40.7422 64.7502 44.3115 64.0094 47.5691 62.6665ZM15.2481 54.2334C11.4928 49.4997 9.24992 43.5119 9.24992 37.0002C9.24992 36.3887 9.26969 35.7819 9.30864 35.1803C9.42431 35.182 9.54539 35.1837 9.67227 35.1855C19.342 35.3237 25.3036 35.0788 32.1816 33.8215C33.8898 33.5092 35.542 33.1416 37.1355 32.716C37.7667 33.9404 38.3716 35.1587 38.9504 36.371C29.9759 39.3228 22.0508 45.2876 15.2481 54.2334ZM10.412 29.0282C19.317 29.1407 24.8515 28.8926 31.0726 27.7553C32.1066 27.5663 33.114 27.3558 34.0943 27.1231C31.3059 22.2452 28.1134 17.2741 24.5158 12.2102C17.776 15.611 12.6123 21.6795 10.412 29.0282ZM30.5111 10.0129C34.1204 15.1793 37.3279 20.2657 40.1325 25.2725C46.0425 22.987 50.6299 19.5905 53.7557 14.878C49.0998 11.346 43.2946 9.25016 36.9999 9.25016C34.7655 9.25016 32.5927 9.51425 30.5111 10.0129ZM58.2783 19.1864C62.024 23.6559 64.3877 29.3231 64.7117 35.5303C57.737 34.0272 51.1777 33.8052 45.0538 34.8557C44.4193 33.4939 43.7538 32.126 43.0571 30.752C49.4114 28.1806 54.5565 24.4043 58.2783 19.1864Z" fill="black"/>
</svg>
