<svg width="74" height="74" viewBox="0 0 74 74" fill="none" xmlns="http://www.w3.org/2000/svg">
<path fill-rule="evenodd" clip-rule="evenodd" d="M49.3334 6.1665H24.6667C14.4495 6.1665 6.16675 14.4492 6.16675 24.6665V49.3332C6.16675 59.5504 14.4495 67.8332 24.6667 67.8332H49.3334C59.5507 67.8332 67.8334 59.5504 67.8334 49.3332V24.6665C67.8334 14.4492 59.5507 6.1665 49.3334 6.1665ZM12.3334 24.6665C12.3334 17.855 17.8552 12.3332 24.6667 12.3332H49.3334C56.1449 12.3332 61.6667 17.855 61.6667 24.6665V49.3332C61.6667 56.1447 56.1449 61.6665 49.3334 61.6665H24.6667C17.8552 61.6665 12.3334 56.1447 12.3334 49.3332V24.6665ZM37.0001 52.4165C28.4857 52.4165 21.5834 45.5142 21.5834 36.9998C21.5834 28.4854 28.4857 21.5832 37.0001 21.5832C45.5145 21.5832 52.4167 28.4854 52.4167 36.9998C52.4167 45.5142 45.5145 52.4165 37.0001 52.4165ZM37.0001 46.2498C42.1087 46.2498 46.2501 42.1085 46.2501 36.9998C46.2501 31.8912 42.1087 27.7498 37.0001 27.7498C31.8914 27.7498 27.7501 31.8912 27.7501 36.9998C27.7501 42.1085 31.8914 46.2498 37.0001 46.2498ZM55.5001 21.5832C55.5001 23.286 54.1196 24.6665 52.4167 24.6665C50.7139 24.6665 49.3334 23.286 49.3334 21.5832C49.3334 19.8803 50.7139 18.4998 52.4167 18.4998C54.1196 18.4998 55.5001 19.8803 55.5001 21.5832Z" fill="black"/>
</svg>
