<svg width="75" height="75" viewBox="0 0 75 75" fill="none" xmlns="http://www.w3.org/2000/svg">
<path fill-rule="evenodd" clip-rule="evenodd" d="M12.5 6.25H62.5C65.9518 6.25 68.75 9.04822 68.75 12.5V62.5C68.75 65.9518 65.9518 68.75 62.5 68.75H12.5C9.04822 68.75 6.25 65.9518 6.25 62.5V12.5C6.25 9.04822 9.04822 6.25 12.5 6.25ZM12.5 12.5V62.5H62.5V12.5H12.5ZM40.625 28.125C39.007 28.125 37.2977 28.6196 35.788 29.538L34.375 28.125H31.25V50H37.5V37.5C37.5 35.7008 39.3561 34.375 40.625 34.375H43.75C45.0189 34.375 46.875 35.7008 46.875 37.5V50H53.125V37.5C53.125 31.7099 48.1061 28.125 43.75 28.125H40.625ZM25 25C26.7259 25 28.125 23.6009 28.125 21.875C28.125 20.1491 26.7259 18.75 25 18.75C23.2741 18.75 21.875 20.1491 21.875 21.875C21.875 23.6009 23.2741 25 25 25ZM21.875 28.125V50H28.125V28.125H21.875Z" fill="black"/>
</svg>
