<svg width="71" height="71" viewBox="0 0 71 71" fill="none" xmlns="http://www.w3.org/2000/svg">
<circle cx="35.5" cy="35.5" r="35.5" fill="#222629"/>
<path d="M20.0775 48.5284C25.5126 48.5284 29.5889 45.3202 29.5889 39.5077V21.5795H23.55V39.5077C23.55 41.1307 22.7573 42.6404 20.1153 42.6404C18.0771 42.6404 17.209 41.8478 16.3787 40.3758L11.1323 43.3953C12.8685 46.7545 15.888 48.5284 20.0775 48.5284Z" fill="white"/>
<path d="M32.9488 42.2232H34.7227C33.2885 43.4687 32.4204 45.3182 32.4204 47.847C32.4204 52.7914 36.7609 56.8677 42.3847 56.8677C48.0085 56.8677 52.349 52.7914 52.349 47.847C52.349 45.3182 51.4809 43.4687 50.0466 42.2232H51.8206V36.5616H32.9488V42.2232ZM46.9894 46.7147C46.9894 49.319 45.2154 51.2062 42.3847 51.2062C39.5539 51.2062 37.7799 49.319 37.7799 46.7147C37.7799 44.1104 39.5539 42.2232 42.3847 42.2232C45.2154 42.2232 46.9894 44.1104 46.9894 46.7147ZM32.9488 20.5188L44.4983 24.0667L32.9488 28.2563V34.484L50.9525 26.973C53.2548 27.8034 54.0852 29.0489 54.0852 31.6909H59.3693C59.6335 26.4068 57.2556 23.0477 51.2544 20.934L32.9488 14.4799V20.5188Z" fill="#62CEE6"/>
</svg>
